{"asset":{"version":"2.0","generator":"THREE.GLTFExporter r175"},"scenes":[{"name":"AuxScene","nodes":[6]}],"scene":0,"nodes":[{"mesh":0},{"mesh":1},{"matrix":[0.3214121732666125,0,-0.32141217326661253,0,0,-0.45454545454545453,0,0,0.32141217326661253,0,0.3214121732666125,0,0,0,0,1],"children":[0,1]},{"children":[2]},{"matrix":[1,0,0,0,0,1,0,0,0,0,1,0,-35.998162257598445,49.99999910593033,34.712513641162644,1],"children":[3]},{"children":[4]},{"children":[5]}],"bufferViews":[{"buffer":0,"byteOffset":0,"byteLength":103536,"target":34962,"byteStride":12},{"buffer":0,"byteOffset":103536,"byteLength":69024,"target":34962,"byteStride":8},{"buffer":0,"byteOffset":172560,"byteLength":103536,"target":34962,"byteStride":12},{"buffer":0,"byteOffset":276096,"byteLength":25776,"target":34962,"byteStride":12},{"buffer":0,"byteOffset":301872,"byteLength":17184,"target":34962,"byteStride":8},{"buffer":0,"byteOffset":319056,"byteLength":25776,"target":34962,"byteStride":12}],"buffers":[{"byteLength":344832,"uri":"data:application/octet-stream;base64,"}],"accessors":[{"bufferView":0,"componentType":5126,"count":8628,"max":[220.3000030517578,220.3000030517578,4.599999904632568],"min":[-0.30000558495521545,-0.3000069856643677,-0.6000000238418579],"type":"VEC3"},{"bufferView":1,"componentType":5126,"count":8628,"max":[220,220],"min":[-0.000005595059974439209,-3.5999999046325684],"type":"VEC2"},{"bufferView":2,"componentType":5126,"count":8628,"max":[1,1,1],"min":[-1,-1,-1],"type":"VEC3"},{"bufferView":3,"componentType":5126,"count":2148,"max":[50.29999923706055,220.3000030517578,4.599999904632568],"min":[-0.30000901222229004,169.6999969482422,-0.6000000238418579],"type":"VEC3"},{"bufferView":4,"componentType":5126,"count":2148,"max":[216.11260986328125,220],"min":[-0.000009004549610835966,-3.5999999046325684],"type":"VEC2"},{"bufferView":5,"componentType":5126,"count":2148,"max":[1,1,1],"min":[-1,-1,-1],"type":"VEC3"}],"materials":[{"pbrMetallicRoughness":{"baseColorFactor":[0.6375968739867731,0.6653872982754769,0.7083757798856457,1],"metallicFactor":0,"roughnessFactor":0.3},"doubleSided":true,"extensions":{"KHR_materials_transmission":{"transmissionFactor":1},"KHR_materials_volume":{"thicknessFactor":0,"attenuationColor":[1,1,1]}}}],"meshes":[{"primitives":[{"mode":4,"attributes":{"POSITION":0,"TEXCOORD_0":1,"NORMAL":2},"material":0}]},{"primitives":[{"mode":4,"attributes":{"POSITION":3,"TEXCOORD_0":4,"NORMAL":5},"material":0}]}],"extensionsUsed":["KHR_materials_transmission","KHR_materials_volume"]}